<?xml version="1.0" encoding="utf-8"?>
<!-- Generator: Adobe Illustrator 26.3.1, SVG Export Plug-In . SVG Version: 6.00 Build 0)  -->
<svg version="1.1" id="Layer_1" xmlns="http://www.w3.org/2000/svg" xmlns:xlink="http://www.w3.org/1999/xlink" x="0px" y="0px"
	 viewBox="0 0 40 40" style="enable-background:new 0 0 40 40;" xml:space="preserve">
<style type="text/css">
	.st0{fill:none;stroke:#8C8C8C;stroke-miterlimit:10;}
	.st1{fill:none;}
	.st2{fill:#8C8C8C;}
</style>
<g>
	<g transform="translate(-0.298 -4.637)">
		<g transform="translate(22.398 -7.566) rotate(40)">
			<g transform="translate(12.308 6.637)">
				<path class="st0" d="M4,0l5.5,0c2.2,0,4,1.8,4,4l0,30.7c0,2.2-1.8,4-4,4l-5.5,0c-2.2,0-4-1.8-4-4L0,4C0,1.8,1.8,0,4,0z"/>
				<path class="st1" d="M4,0.5l5.5,0C11.4,0.5,13,2.1,13,4l0,30.7c0,1.9-1.6,3.5-3.5,3.5l-5.5,0c-1.9,0-3.5-1.6-3.5-3.5L0.5,4
					C0.5,2.1,2.1,0.5,4,0.5z"/>
			</g>
			<circle class="st2" cx="16.7" cy="27.9" r="1.4"/>
			<circle class="st2" cx="16.7" cy="33.5" r="1.4"/>
			<circle class="st2" cx="16.7" cy="38.7" r="1.4"/>
			<circle class="st2" cx="20.9" cy="27.7" r="1.4"/>
			<circle class="st2" cx="20.9" cy="33.4" r="1.4"/>
			<circle class="st2" cx="20.9" cy="38.6" r="1.4"/>
			<g transform="translate(0.788 0.028)">
				<g transform="translate(13.126 12.295)">
					<circle class="st0" cx="5.1" cy="5.1" r="5.1"/>
					<circle class="st1" cx="5.1" cy="5.1" r="4.6"/>
				</g>
				<g transform="translate(15.474 14.641)">
					<circle class="st0" cx="2.7" cy="2.7" r="2.7"/>
					<circle class="st1" cx="2.7" cy="2.7" r="2.2"/>
				</g>
			</g>
		</g>
	</g>
</g>
</svg>
