<?xml version="1.0" encoding="utf-8"?>
<!-- Generator: Adobe Illustrator 26.3.1, SVG Export Plug-In . SVG Version: 6.00 Build 0)  -->
<svg version="1.1" id="Layer_1" xmlns="http://www.w3.org/2000/svg" xmlns:xlink="http://www.w3.org/1999/xlink" x="0px" y="0px"
	 viewBox="0 0 41 43" style="enable-background:new 0 0 41 43;" xml:space="preserve">
<style type="text/css">
	.st0{fill:none;stroke:#8C8C8C;stroke-miterlimit:10;}
	.st1{fill-rule:evenodd;clip-rule:evenodd;fill:#8C8C8C;}
	.st2{fill:none;stroke:#8C8C8C;stroke-linecap:round;stroke-miterlimit:10;}
</style>
<g transform="translate(459 259.111)">
	<g transform="translate(-528.104 -691.447)">
		<path class="st0" d="M109.2,470.2H71.1v-3.8l3-4.8v-19.3c0-1.1,0.9-2,2-2l0,0h28c1.1,0,2,0.9,2,2v19.6l3,4L109.2,470.2z"/>
		<line class="st0" x1="74.1" y1="461.6" x2="106.1" y2="461.6"/>
	</g>
</g>
<g transform="translate(-135 -73.646)">
	<path class="st1" d="M155.3,98.8c-0.6,0-1.2-0.5-1.2-1.2s0.5-1.2,1.2-1.2c0.6,0,1.2,0.5,1.2,1.2l0,0
		C156.5,98.3,156,98.8,155.3,98.8L155.3,98.8"/>
	<g>
		<path class="st1" d="M154.3,91.8c-1,0.1-1.9,0.5-2.8,1.2l0,0c-0.1,0-0.1,0.1-0.2,0.1l0,0c-0.1,0.1-0.2,0.3-0.2,0.4s0,0.2,0.1,0.3
			c0.1,0.3,0.5,0.5,0.9,0.4l0,0c0.1-0.1,0.1-0.1,0.2-0.2c1-0.7,2.1-1,3.3-0.9L154.3,91.8z"/>
		<path class="st1" d="M157.5,93.5c0.2,0.1,0.5,0.3,0.7,0.4c0.1,0,0.1,0.1,0.2,0.1c0.1,0.1,0.2,0.1,0.3,0.1l0,0
			c0.4,0,0.7-0.3,0.7-0.7c0-0.2-0.1-0.3-0.2-0.4c-0.1-0.1-0.1-0.1-0.2-0.2l0,0c-1-0.7-2.1-1.1-3.3-1.2L157.5,93.5z"/>
	</g>
	<line class="st2" x1="149.6" y1="87.5" x2="160.2" y2="98"/>
	<g>
		<path class="st1" d="M151.1,88.5c-0.9,0.4-1.7,0.9-2.4,1.5l0,0l-0.1,0.1c-0.1,0.1-0.2,0.3-0.2,0.4l0,0c0,0.4,0.3,0.7,0.7,0.7
			c0.1,0,0.2,0,0.3-0.1s0.1-0.1,0.2-0.2l0,0c0.8-0.6,1.6-1.1,2.5-1.5L151.1,88.5z"/>
		<path class="st1" d="M162.1,90.2c-0.1-0.1-0.1-0.1-0.2-0.2c-2.8-2.4-6.5-3-9.8-1.9l1.1,1.1c2.7-0.7,5.7-0.1,7.9,1.8l0,0
			c0.1,0.1,0.1,0.1,0.2,0.2c0.1,0.1,0.2,0.1,0.3,0.1l0,0c0.4,0,0.7-0.3,0.7-0.7C162.3,90.4,162.2,90.3,162.1,90.2z"/>
	</g>
</g>
</svg>
