<?xml version="1.0" encoding="utf-8"?>
<!-- Generator: Adobe Illustrator 26.3.1, SVG Export Plug-In . SVG Version: 6.00 Build 0)  -->
<svg version="1.1" id="Layer_1" xmlns="http://www.w3.org/2000/svg" xmlns:xlink="http://www.w3.org/1999/xlink" x="0px" y="0px"
	 viewBox="0 0 40 41" style="enable-background:new 0 0 40 41;" xml:space="preserve">
<style type="text/css">
	.st0{fill:none;stroke:#8C8C8C;stroke-miterlimit:10;}
</style>
<g transform="translate(-142 -262.5)">
	<g transform="translate(142 263)">
		<g transform="translate(6)">
			<path class="st0" d="M1,0h26.5c0.6,0,1,0.4,1,1v38c0,0.6-0.4,1-1,1H1c-0.6,0-1-0.4-1-1V1C0,0.4,0.4,0,1,0z"/>
			<line class="st0" x1="5.4" y1="6" x2="23.2" y2="6"/>
			<line class="st0" x1="5.4" y1="12.2" x2="23.2" y2="12.2"/>
			<g transform="translate(-631.61 -357.155)">
				<path class="st0" d="M642.8,386.6c0,2.2,3,2,3,2c1.6,0.1,3-1.1,3.1-2.7l0,0c0-1.5-1.4-1.9-3.1-2.7l0,0c-1.5-0.7-3.1-1.2-3.1-2.7
					l0,0c0.1-1.6,1.5-2.8,3.1-2.7c0,0,3-0.1,3,2"/>
				<line class="st0" x1="645.9" y1="377.8" x2="645.9" y2="375.3"/>
				<line class="st0" x1="645.9" y1="388.6" x2="645.9" y2="391.1"/>
			</g>
		</g>
	</g>
</g>
</svg>
